<?xml version="1.0" standalone="no"?>
<!DOCTYPE svg PUBLIC "-//W3C//DTD SVG 20010904//EN"
 "http://www.w3.org/TR/2001/REC-SVG-20010904/DTD/svg10.dtd">
<svg version="1.0" xmlns="http://www.w3.org/2000/svg"
 width="1920.000000pt" height="1080.000000pt" viewBox="0 0 1920.000000 1080.000000"
 preserveAspectRatio="xMidYMid meet">

<g transform="translate(0.000000,1080.000000) scale(0.100000,-0.100000)"
fill="#000000" stroke="none">
<path d="M0 8395 c0 -1597 3 -2405 10 -2405 6 0 10 -9 10 -20 0 -11 -4 -20
-10 -20 -7 0 -10 -998 -10 -2975 l0 -2975 9600 0 9600 0 0 5400 0 5400 -9600
0 -9600 0 0 -2405z m4260 2210 c0 -41 -2 -45 -25 -45 -23 0 -25 4 -25 45 0 41
2 45 25 45 23 0 25 -4 25 -45z m-3280 -70 c0 -20 -5 -25 -25 -25 -20 0 -25 5
-25 25 0 20 5 25 25 25 20 0 25 -5 25 -25z m7080 -70 c0 -41 -2 -45 -25 -45
-23 0 -25 4 -25 45 0 41 2 45 25 45 23 0 25 -4 25 -45z m100 -70 c0 -18 5 -25
20 -25 15 0 20 -7 20 -25 0 -18 -5 -25 -20 -25 -15 0 -20 7 -20 25 0 20 -5 25
-25 25 -20 0 -25 5 -25 25 0 20 5 25 25 25 20 0 25 -5 25 -25z m-380 -145 c0
-17 7 -20 45 -20 38 0 45 3 45 20 0 18 7 20 70 20 63 0 70 -2 70 -20 0 -13 -7
-20 -20 -20 -15 0 -20 -7 -20 -25 0 -20 -5 -25 -25 -25 -20 0 -25 -5 -25 -25
0 -20 -5 -25 -25 -25 l-25 0 0 -165 0 -165 -25 0 c-20 0 -25 5 -25 25 0 23 -4
25 -45 25 l-45 0 0 45 c0 41 2 45 25 45 20 0 25 5 25 25 0 18 5 25 20 25 15 0
20 7 20 25 0 18 -5 25 -20 25 -13 0 -20 7 -20 20 0 15 -7 20 -25 20 -23 0 -25
3 -25 50 0 47 2 50 25 50 20 0 25 5 25 25 0 20 -5 25 -25 25 -18 0 -25 5 -25
20 0 15 7 20 25 20 18 0 25 -5 25 -20z m-2570 -145 c0 -20 -5 -25 -25 -25 -20
0 -25 5 -25 25 0 20 5 25 25 25 20 0 25 -5 25 -25z m-3330 -190 c0 -20 -5 -25
-25 -25 -20 0 -25 5 -25 25 0 20 5 25 25 25 20 0 25 -5 25 -25z m6990 0 c0
-20 5 -25 25 -25 18 0 25 -5 25 -20 0 -17 -7 -20 -50 -20 l-50 0 0 45 c0 41 2
45 25 45 20 0 25 -5 25 -25z m-6750 -45 c0 -15 -7 -20 -25 -20 -18 0 -25 5
-25 20 0 15 7 20 25 20 18 0 25 -5 25 -20z m14120 -45 c0 -18 -5 -25 -20 -25
-15 0 -20 7 -20 25 0 18 5 25 20 25 15 0 20 -7 20 -25z m2900 0 c0 -18 -5 -25
-20 -25 -15 0 -20 7 -20 25 0 18 5 25 20 25 15 0 20 -7 20 -25z m-13980 -50
c0 -20 -5 -25 -25 -25 -20 0 -25 5 -25 25 0 20 5 25 25 25 20 0 25 -5 25 -25z
m3330 -70 c0 -95 0 -95 -25 -95 -25 0 -25 0 -25 95 0 95 0 95 25 95 25 0 25 0
25 -95z m-760 20 c0 -20 -5 -25 -25 -25 -20 0 -25 5 -25 25 0 20 5 25 25 25
20 0 25 -5 25 -25z m190 -45 c0 -15 7 -20 25 -20 20 0 25 -5 25 -25 0 -18 5
-25 20 -25 15 0 20 7 20 25 0 25 0 25 95 25 l95 0 0 -50 c0 -43 -3 -50 -20
-50 -15 0 -20 7 -20 25 0 20 -5 25 -25 25 -20 0 -25 -5 -25 -25 0 -20 -5 -25
-25 -25 -20 0 -25 -5 -25 -25 0 -20 5 -25 25 -25 18 0 25 -5 25 -20 0 -15 7
-20 25 -20 20 0 25 -5 25 -25 0 -18 5 -25 20 -25 17 0 20 7 20 45 0 41 2 45
25 45 23 0 25 -4 25 -45 0 -41 2 -45 25 -45 20 0 25 -5 25 -25 0 -20 -5 -25
-25 -25 -20 0 -25 -5 -25 -25 0 -20 5 -25 25 -25 20 0 25 -5 25 -25 0 -20 5
-25 25 -25 20 0 25 5 25 25 0 23 4 25 45 25 41 0 45 2 45 25 0 20 5 25 25 25
20 0 25 5 25 25 0 20 -5 25 -25 25 -23 0 -25 4 -25 45 0 41 2 45 25 45 23 0
25 -4 25 -45 0 -41 2 -45 25 -45 20 0 25 -5 25 -25 0 -20 -5 -25 -25 -25 -20
0 -25 -5 -25 -25 0 -20 5 -25 25 -25 20 0 25 -5 25 -25 0 -24 -2 -25 -70 -25
l-70 0 0 -115 0 -115 -25 0 c-18 0 -25 5 -25 20 0 15 -7 20 -25 20 -23 0 -25
3 -25 50 0 47 -2 50 -25 50 -20 0 -25 5 -25 25 0 20 -5 25 -25 25 -23 0 -25 4
-25 45 0 38 -3 45 -20 45 -15 0 -20 7 -20 25 0 25 0 25 -95 25 l-95 0 0 70 0
70 -50 0 c-43 0 -50 -3 -50 -20 0 -17 -7 -20 -45 -20 -38 0 -45 3 -45 20 0 13
7 20 20 20 17 0 20 7 20 50 0 47 2 50 25 50 20 0 25 5 25 25 0 20 -5 25 -25
25 -18 0 -25 5 -25 20 0 17 7 20 50 20 43 0 50 -3 50 -20z m8660 0 c0 -15 -7
-20 -25 -20 -18 0 -25 5 -25 20 0 15 7 20 25 20 18 0 25 -5 25 -20z m-12560
-45 c0 -20 -5 -25 -25 -25 -20 0 -25 5 -25 25 0 20 5 25 25 25 20 0 25 -5 25
-25z m-3040 -50 c0 -20 -5 -25 -25 -25 -20 0 -25 5 -25 25 0 20 5 25 25 25 20
0 25 -5 25 -25z m4940 -50 c0 -20 -5 -25 -25 -25 -20 0 -25 5 -25 25 0 20 5
25 25 25 20 0 25 -5 25 -25z m8330 0 c0 -20 -5 -25 -25 -25 -20 0 -25 5 -25
25 0 20 5 25 25 25 20 0 25 -5 25 -25z m1800 0 c0 -18 -5 -25 -20 -25 -15 0
-20 7 -20 25 0 18 5 25 20 25 15 0 20 -7 20 -25z m-5370 -45 c0 -15 -7 -20
-25 -20 -18 0 -25 5 -25 20 0 15 7 20 25 20 18 0 25 -5 25 -20z m-3190 -120
c0 -47 -2 -50 -25 -50 -23 0 -25 3 -25 50 0 47 2 50 25 50 23 0 25 -3 25 -50z
m140 -25 c0 -18 -5 -25 -20 -25 -15 0 -20 7 -20 25 0 18 5 25 20 25 15 0 20
-7 20 -25z m-1900 -50 c0 -20 -5 -25 -25 -25 -20 0 -25 5 -25 25 0 20 5 25 25
25 20 0 25 -5 25 -25z m2090 -20 c0 -38 -3 -45 -20 -45 -17 0 -20 7 -20 45 0
38 3 45 20 45 17 0 20 -7 20 -45z m-1040 -25 c0 -15 -7 -20 -25 -20 -18 0 -25
5 -25 20 0 15 7 20 25 20 18 0 25 -5 25 -20z m850 0 c0 -15 7 -20 25 -20 20 0
25 -5 25 -25 0 -23 -4 -25 -45 -25 l-45 0 0 45 c0 38 3 45 20 45 13 0 20 -7
20 -20z m-4280 -45 c0 -18 -5 -25 -20 -25 -15 0 -20 7 -20 25 0 18 5 25 20 25
15 0 20 -7 20 -25z m4190 -25 c0 -47 2 -50 25 -50 20 0 25 -5 25 -25 0 -23 -3
-25 -50 -25 -43 0 -50 -3 -50 -20 0 -15 -7 -20 -25 -20 -18 0 -25 5 -25 20 0
15 7 20 25 20 24 0 25 2 25 75 0 73 1 75 25 75 23 0 25 -3 25 -50z m1380 25
c0 -20 5 -25 25 -25 20 0 25 5 25 25 0 18 5 25 20 25 17 0 20 -7 20 -50 0 -43
-3 -50 -20 -50 -17 0 -20 -7 -20 -45 0 -38 3 -45 20 -45 17 0 20 -7 20 -50 l0
-50 50 0 c47 0 50 -2 50 -25 0 -20 -5 -25 -25 -25 -18 0 -25 -5 -25 -20 0 -19
7 -20 95 -20 88 0 95 1 95 20 0 17 7 20 50 20 47 0 50 2 50 25 0 18 5 25 20
25 15 0 20 -7 20 -25 0 -24 2 -25 75 -25 73 0 75 1 75 25 0 23 4 25 45 25 41
0 45 2 45 25 0 20 5 25 25 25 23 0 25 -3 25 -50 l0 -50 -50 0 -50 0 0 -115 0
-115 25 0 c20 0 25 -5 25 -25 0 -20 -5 -25 -25 -25 -20 0 -25 5 -25 25 0 18
-5 25 -20 25 -13 0 -20 7 -20 20 0 17 -7 20 -50 20 -43 0 -50 -3 -50 -20 0
-15 -7 -20 -25 -20 -20 0 -25 -5 -25 -25 0 -24 -2 -25 -70 -25 -68 0 -70 -1
-70 -25 0 -23 -4 -25 -45 -25 l-45 0 0 -45 c0 -41 -2 -45 -25 -45 -20 0 -25
-5 -25 -25 0 -20 5 -25 25 -25 l25 0 0 -120 0 -120 -25 0 -25 0 0 120 0 120
-25 0 c-24 0 -25 2 -25 70 0 68 -1 70 -25 70 -20 0 -25 5 -25 25 0 23 -4 25
-45 25 l-45 0 0 70 0 70 -70 0 c-68 0 -70 -1 -70 -25 0 -25 0 -25 -95 -25 -95
0 -95 0 -95 25 0 20 -5 25 -25 25 -20 0 -25 5 -25 25 0 20 -5 25 -25 25 -20 0
-25 5 -25 25 0 20 -5 25 -25 25 -18 0 -25 5 -25 20 0 15 7 20 25 20 18 0 25
-5 25 -20 0 -17 7 -20 50 -20 43 0 50 3 50 20 0 13 7 20 20 20 19 0 20 7 20
95 l0 95 50 0 c47 0 50 2 50 25 0 23 4 25 45 25 41 0 45 2 45 25 0 18 -5 25
-20 25 -15 0 -20 7 -20 25 0 24 2 25 70 25 68 0 70 -1 70 -25z m-1430 -240 c0
-20 -5 -25 -25 -25 -20 0 -25 5 -25 25 0 20 5 25 25 25 20 0 25 -5 25 -25z
m7900 -95 c0 -15 -7 -20 -25 -20 -18 0 -25 5 -25 20 0 15 7 20 25 20 18 0 25
-5 25 -20z m-3620 -45 c0 -20 -5 -25 -25 -25 -20 0 -25 5 -25 25 0 20 5 25 25
25 20 0 25 -5 25 -25z m-1850 -75 c0 -47 -2 -50 -25 -50 -23 0 -25 3 -25 50 0
47 2 50 25 50 23 0 25 -3 25 -50z m570 -25 c0 -20 -5 -25 -25 -25 -20 0 -25 5
-25 25 0 20 5 25 25 25 20 0 25 -5 25 -25z m1040 0 c0 -18 -5 -25 -20 -25 -15
0 -20 7 -20 25 0 18 5 25 20 25 15 0 20 -7 20 -25z m910 -70 c0 -41 -2 -45
-25 -45 -23 0 -25 4 -25 45 0 41 2 45 25 45 23 0 25 -4 25 -45z m-7280 -70 c0
-20 -5 -25 -25 -25 -20 0 -25 -5 -25 -25 0 -18 -5 -25 -20 -25 -15 0 -20 7
-20 25 0 18 5 25 20 25 15 0 20 7 20 25 0 20 5 25 25 25 20 0 25 -5 25 -25z
m7610 0 c0 -20 -5 -25 -25 -25 -20 0 -25 5 -25 25 0 20 5 25 25 25 20 0 25 -5
25 -25z m1480 0 c0 -23 -3 -25 -50 -25 -47 0 -50 2 -50 25 0 23 3 25 50 25 47
0 50 -2 50 -25z m-7660 -50 c0 -20 -5 -25 -25 -25 -20 0 -25 5 -25 25 0 20 5
25 25 25 20 0 25 -5 25 -25z m3090 -45 c0 -15 -7 -20 -25 -20 -18 0 -25 5 -25
20 0 15 7 20 25 20 18 0 25 -5 25 -20z m-4380 -95 c0 -20 5 -25 25 -25 23 0
25 -4 25 -45 0 -41 -2 -45 -25 -45 -20 0 -25 -5 -25 -25 0 -20 5 -25 25 -25
20 0 25 -5 25 -25 0 -25 0 -25 -95 -25 -95 0 -95 0 -95 -25 0 -20 -5 -25 -25
-25 -18 0 -25 -5 -25 -20 0 -13 -7 -20 -20 -20 -13 0 -20 7 -20 20 0 13 7 20
20 20 17 0 20 7 20 50 l0 50 50 0 c47 0 50 2 50 25 0 20 5 25 25 25 18 0 25 5
25 20 0 13 7 20 20 20 15 0 20 7 20 25 0 18 -5 25 -20 25 -15 0 -20 7 -20 25
0 18 5 25 20 25 15 0 20 -7 20 -25z m4430 -70 c0 -41 -2 -45 -25 -45 -23 0
-25 4 -25 45 0 41 2 45 25 45 23 0 25 -4 25 -45z m1140 20 c0 -20 -5 -25 -25
-25 -20 0 -25 5 -25 25 0 20 5 25 25 25 20 0 25 -5 25 -25z m-1570 -45 c0 -15
-7 -20 -25 -20 -18 0 -25 5 -25 20 0 15 7 20 25 20 18 0 25 -5 25 -20z m-4520
-145 c0 -20 -5 -25 -25 -25 -20 0 -25 5 -25 25 0 20 5 25 25 25 20 0 25 -5 25
-25z m2380 0 c0 -20 -5 -25 -25 -25 -18 0 -25 -5 -25 -20 0 -17 -7 -20 -45
-20 l-45 0 0 -50 0 -50 -50 0 c-47 0 -50 -2 -50 -25 0 -23 -4 -25 -45 -25 -41
0 -45 2 -45 25 0 18 5 25 20 25 15 0 20 7 20 25 0 20 5 25 25 25 20 0 25 5 25
25 0 23 3 25 50 25 43 0 50 3 50 20 0 13 7 20 20 20 15 0 20 7 20 25 0 23 3
25 50 25 47 0 50 -2 50 -25z m2610 0 c0 -18 -5 -25 -20 -25 -15 0 -20 7 -20
25 0 18 5 25 20 25 15 0 20 -7 20 -25z m-5080 -45 c0 -15 -7 -20 -25 -20 -20
0 -25 -5 -25 -25 0 -20 -5 -25 -25 -25 -20 0 -25 -5 -25 -25 0 -20 -5 -25 -25
-25 -20 0 -25 5 -25 25 0 20 5 25 25 25 23 0 25 4 25 45 l0 45 50 0 c43 0 50
-3 50 -20z m8790 0 c0 -13 -7 -20 -20 -20 -13 0 -20 7 -20 20 0 13 7 20 20 20
13 0 20 -7 20 -20z m-2470 -45 c0 -20 -5 -25 -25 -25 -20 0 -25 5 -25 25 0 20
5 25 25 25 20 0 25 -5 25 -25z m-5420 -50 c0 -20 -5 -25 -25 -25 -20 0 -25 5
-25 25 0 20 5 25 25 25 20 0 25 -5 25 -25z m1050 0 c0 -20 -5 -25 -25 -25 -20
0 -25 5 -25 25 0 20 5 25 25 25 20 0 25 -5 25 -25z m90 0 c0 -20 -5 -25 -25
-25 -20 0 -25 5 -25 25 0 20 5 25 25 25 20 0 25 -5 25 -25z m2520 -50 c0 -20
-5 -25 -25 -25 -20 0 -25 5 -25 25 0 20 5 25 25 25 20 0 25 -5 25 -25z m3570
0 c0 -20 -5 -25 -25 -25 -20 0 -25 5 -25 25 0 20 5 25 25 25 20 0 25 -5 25
-25z m-3430 -70 c0 -41 2 -45 25 -45 20 0 25 5 25 25 0 20 5 25 25 25 24 0 25
-2 25 -75 l0 -75 45 0 c38 0 45 -3 45 -20 0 -13 -7 -20 -20 -20 -15 0 -20 -7
-20 -25 0 -18 5 -25 20 -25 19 0 20 -7 20 -95 0 -95 0 -95 25 -95 23 0 25 -3
25 -50 0 -47 -2 -50 -25 -50 -23 0 -25 3 -25 50 0 43 -3 50 -20 50 -18 0 -20
7 -20 70 0 68 -1 70 -25 70 -23 0 -25 3 -25 50 0 47 -2 50 -25 50 -23 0 -25 4
-25 45 0 41 -2 45 -25 45 -20 0 -25 5 -25 25 0 18 -5 25 -20 25 -15 0 -20 -7
-20 -25 0 -20 -5 -25 -25 -25 -20 0 -25 5 -25 25 0 20 -5 25 -25 25 -20 0 -25
5 -25 25 0 20 5 25 25 25 18 0 25 5 25 20 0 17 7 20 45 20 l45 0 0 -45z
m-8890 -20 c0 -20 -5 -25 -25 -25 -20 0 -25 5 -25 25 0 20 5 25 25 25 20 0 25
-5 25 -25z m9320 0 c0 -20 -5 -25 -25 -25 -20 0 -25 5 -25 25 0 20 5 25 25 25
20 0 25 -5 25 -25z m720 0 c0 -20 -5 -25 -25 -25 -20 0 -25 5 -25 25 0 20 5
25 25 25 20 0 25 -5 25 -25z m-100 -50 c0 -25 0 -25 -95 -25 -95 0 -95 0 -95
25 0 25 0 25 95 25 95 0 95 0 95 -25z m-2040 -50 c0 -20 -5 -25 -25 -25 -20 0
-25 5 -25 25 0 20 5 25 25 25 20 0 25 -5 25 -25z m1470 0 c0 -20 5 -25 25 -25
18 0 25 -5 25 -20 0 -15 -7 -20 -25 -20 -18 0 -25 5 -25 20 0 15 -7 20 -25 20
-20 0 -25 5 -25 25 0 20 5 25 25 25 20 0 25 -5 25 -25z m2140 0 c0 -20 -5 -25
-25 -25 -20 0 -25 5 -25 25 0 20 5 25 25 25 20 0 25 -5 25 -25z m-2810 -70 c0
-38 -3 -45 -20 -45 -17 0 -20 7 -20 45 0 38 3 45 20 45 17 0 20 -7 20 -45z
m530 -20 c0 -20 -5 -25 -25 -25 -20 0 -25 5 -25 25 0 20 5 25 25 25 20 0 25
-5 25 -25z m90 0 c0 -20 -5 -25 -25 -25 -20 0 -25 5 -25 25 0 20 5 25 25 25
20 0 25 -5 25 -25z m1330 -145 c0 -13 -7 -20 -20 -20 -15 0 -20 -7 -20 -25 0
-23 4 -25 45 -25 41 0 45 -2 45 -25 0 -20 5 -25 25 -25 20 0 25 5 25 25 0 23
4 25 45 25 l45 0 0 45 0 45 75 0 c68 0 75 -2 75 -20 0 -17 -7 -20 -50 -20
l-50 0 0 -120 0 -120 25 0 c20 0 25 -5 25 -25 0 -20 5 -25 25 -25 20 0 25 -5
25 -25 0 -20 -5 -25 -25 -25 -20 0 -25 -5 -25 -25 0 -20 -5 -25 -25 -25 -24 0
-25 2 -25 75 l0 75 -95 0 c-95 0 -95 0 -95 -25 0 -23 -4 -25 -45 -25 -41 0
-45 2 -45 25 0 20 -5 25 -25 25 -18 0 -25 5 -25 20 0 15 -7 20 -25 20 -20 0
-25 5 -25 25 0 20 -5 25 -25 25 -20 0 -25 5 -25 25 0 20 5 25 25 25 20 0 25
-5 25 -25 0 -20 5 -25 25 -25 23 0 25 3 25 50 0 47 -2 50 -25 50 -20 0 -25 5
-25 25 0 23 3 25 50 25 43 0 50 3 50 20 0 13 7 20 20 20 13 0 20 -7 20 -20z
m-760 -45 c0 -18 -5 -25 -20 -25 -15 0 -20 7 -20 25 0 18 5 25 20 25 15 0 20
-7 20 -25z m1810 -75 c0 -47 -2 -50 -25 -50 -23 0 -25 3 -25 50 0 47 2 50 25
50 23 0 25 -3 25 -50z m-1470 -25 c0 -20 -5 -25 -25 -25 -20 0 -25 -5 -25 -25
0 -23 4 -25 45 -25 41 0 45 2 45 25 0 20 5 25 25 25 20 0 25 -5 25 -25 0 -23
3 -25 50 -25 43 0 50 -3 50 -20 0 -13 7 -20 20 -20 15 0 20 -7 20 -25 0 -20 5
-25 25 -25 20 0 25 -5 25 -25 0 -23 -4 -25 -45 -25 -41 0 -45 2 -45 25 0 24
-2 25 -75 25 -73 0 -75 -1 -75 -25 0 -23 -4 -25 -45 -25 -41 0 -45 -2 -45 -25
0 -20 -5 -25 -25 -25 -20 0 -25 5 -25 25 0 20 -5 25 -25 25 -20 0 -25 5 -25
25 0 18 -5 25 -20 25 -15 0 -20 7 -20 25 0 23 -3 25 -50 25 -43 0 -50 3 -50
20 0 19 7 20 95 20 95 0 95 0 95 25 0 20 5 25 25 25 20 0 25 5 25 25 0 20 5
25 25 25 20 0 25 -5 25 -25z m-5050 -95 c0 -13 -7 -20 -20 -20 -13 0 -20 7
-20 20 0 13 7 20 20 20 13 0 20 -7 20 -20z m2720 0 c0 -15 -7 -20 -25 -20 -20
0 -25 -5 -25 -25 0 -20 -5 -25 -25 -25 -23 0 -25 4 -25 45 l0 45 50 0 c43 0
50 -3 50 -20z m1230 -95 l0 -75 -70 0 -70 0 0 50 0 50 45 0 c41 0 45 2 45 25
0 20 5 25 25 25 24 0 25 -2 25 -75z m-1090 -50 c0 -20 -5 -25 -25 -25 -20 0
-25 5 -25 25 0 20 5 25 25 25 20 0 25 -5 25 -25z m4330 -45 c0 -15 -7 -20 -25
-20 -18 0 -25 5 -25 20 0 15 7 20 25 20 18 0 25 -5 25 -20z m-2950 -215 c0
-41 -2 -45 -25 -45 -20 0 -25 5 -25 25 0 20 -5 25 -25 25 -18 0 -25 5 -25 20
0 17 7 20 50 20 l50 0 0 -45z m-1380 -45 c0 -47 -2 -50 -25 -50 -23 0 -25 3
-25 50 0 47 2 50 25 50 23 0 25 -3 25 -50z m3850 -25 c0 -20 -5 -25 -25 -25
-20 0 -25 5 -25 25 0 20 5 25 25 25 20 0 25 -5 25 -25z m290 -25 c0 -47 -2
-50 -25 -50 -20 0 -25 5 -25 25 0 20 -5 25 -25 25 -20 0 -25 5 -25 25 0 23 3
25 50 25 l50 0 0 -50z m-11900 -70 c0 -13 -7 -20 -20 -20 -13 0 -20 7 -20 20
0 13 7 20 20 20 13 0 20 -7 20 -20z m9760 -235 c0 -24 -2 -25 -75 -25 -73 0
-75 1 -75 25 0 24 2 25 75 25 73 0 75 -1 75 -25z m230 0 c0 -18 -5 -25 -20
-25 -15 0 -20 -7 -20 -25 0 -18 5 -25 20 -25 15 0 20 -7 20 -25 0 -18 -5 -25
-20 -25 -15 0 -20 7 -20 25 0 24 -2 25 -75 25 -73 0 -75 1 -75 25 0 24 2 25
75 25 73 0 75 1 75 25 0 18 5 25 20 25 15 0 20 -7 20 -25z m2710 -50 c0 -23
-4 -25 -45 -25 -41 0 -45 2 -45 25 0 23 4 25 45 25 41 0 45 -2 45 -25z m1480
-95 c0 -15 -7 -20 -25 -20 -18 0 -25 5 -25 20 0 15 7 20 25 20 18 0 25 -5 25
-20z m-10940 -45 c0 -20 -5 -25 -25 -25 -20 0 -25 5 -25 25 0 20 5 25 25 25
20 0 25 -5 25 -25z m6900 0 c0 -20 -5 -25 -25 -25 -20 0 -25 5 -25 25 0 20 5
25 25 25 20 0 25 -5 25 -25z m380 0 c0 -20 -5 -25 -25 -25 -20 0 -25 5 -25 25
0 20 5 25 25 25 20 0 25 -5 25 -25z m140 0 c0 -23 4 -25 45 -25 41 0 45 -2 45
-25 0 -18 -5 -25 -20 -25 -19 0 -20 -7 -20 -95 l0 -95 -50 0 c-47 0 -50 2 -50
25 0 24 -2 25 -70 25 -68 0 -70 1 -70 25 0 23 -3 25 -50 25 -43 0 -50 3 -50
20 0 17 7 20 50 20 43 0 50 -3 50 -20 0 -15 7 -20 25 -20 18 0 25 5 25 20 0
13 7 20 20 20 18 0 20 7 20 75 l0 75 50 0 c47 0 50 -2 50 -25z m-3660 -50 c0
-20 -5 -25 -25 -25 -20 0 -25 5 -25 25 0 20 5 25 25 25 20 0 25 -5 25 -25z
m-3860 -50 c0 -18 -5 -25 -20 -25 -15 0 -20 7 -20 25 0 18 5 25 20 25 15 0 20
-7 20 -25z m7900 0 c0 -20 -5 -25 -25 -25 -20 0 -25 5 -25 25 0 20 5 25 25 25
20 0 25 -5 25 -25z m900 -90 c0 -18 -5 -25 -20 -25 -15 0 -20 7 -20 25 0 18 5
25 20 25 15 0 20 -7 20 -25z m-5280 -75 c0 -43 -3 -50 -20 -50 -17 0 -20 7
-20 50 0 43 3 50 20 50 17 0 20 -7 20 -50z m-7370 -25 c0 -20 -5 -25 -25 -25
-20 0 -25 5 -25 25 0 20 5 25 25 25 20 0 25 -5 25 -25z m330 -90 c0 -18 -5
-25 -20 -25 -15 0 -20 7 -20 25 0 18 5 25 20 25 15 0 20 -7 20 -25z m16080 0
c0 -20 -5 -25 -25 -25 -20 0 -25 5 -25 25 0 20 5 25 25 25 20 0 25 -5 25 -25z
m-4760 -100 c0 -18 -5 -25 -20 -25 -15 0 -20 7 -20 25 0 18 5 25 20 25 15 0
20 -7 20 -25z m-4510 -70 l0 -45 -50 0 c-47 0 -50 2 -50 25 0 20 5 25 25 25
18 0 25 5 25 20 0 15 7 20 25 20 23 0 25 -4 25 -45z m4610 25 c0 -15 -7 -20
-25 -20 -18 0 -25 5 -25 20 0 15 7 20 25 20 18 0 25 -5 25 -20z m90 -45 c0
-18 -5 -25 -20 -25 -15 0 -20 7 -20 25 0 18 5 25 20 25 15 0 20 -7 20 -25z
m2150 0 c0 -20 -5 -25 -25 -25 -20 0 -25 5 -25 25 0 20 5 25 25 25 20 0 25 -5
25 -25z m-7610 -340 c0 -20 -5 -25 -25 -25 -20 0 -25 5 -25 25 0 20 5 25 25
25 20 0 25 -5 25 -25z m6420 -140 c0 -18 5 -25 20 -25 17 0 20 -7 20 -45 0
-38 -3 -45 -20 -45 -15 0 -20 -7 -20 -25 0 -20 -5 -25 -25 -25 -20 0 -25 5
-25 25 0 24 -2 25 -70 25 -63 0 -70 2 -70 20 0 18 -7 20 -75 20 -73 0 -75 1
-75 25 l0 25 120 0 120 0 0 25 c0 23 3 25 50 25 47 0 50 -2 50 -25z m-430 -50
c0 -20 -5 -25 -25 -25 -20 0 -25 5 -25 25 0 20 5 25 25 25 20 0 25 -5 25 -25z
m-1430 -70 l0 -45 -45 0 -45 0 0 45 0 45 45 0 45 0 0 -45z m2050 -120 c0 -23
4 -25 45 -25 38 0 45 -3 45 -20 0 -17 -7 -20 -45 -20 -38 0 -45 3 -45 20 0 17
-7 20 -50 20 -47 0 -50 2 -50 25 0 23 3 25 50 25 47 0 50 -2 50 -25z m280 0
c0 -20 -5 -25 -25 -25 -20 0 -25 5 -25 25 0 20 5 25 25 25 20 0 25 -5 25 -25z
m-90 -45 c0 -15 -7 -20 -25 -20 -18 0 -25 5 -25 20 0 15 7 20 25 20 18 0 25
-5 25 -20z m1570 0 c0 -15 -7 -20 -25 -20 -18 0 -25 5 -25 20 0 15 7 20 25 20
18 0 25 -5 25 -20z m-10420 -145 c0 -20 -5 -25 -25 -25 -20 0 -25 5 -25 25 0
20 5 25 25 25 20 0 25 -5 25 -25z m-670 -280 c0 -18 -5 -25 -20 -25 -15 0 -20
7 -20 25 0 18 5 25 20 25 15 0 20 -7 20 -25z m-2950 -100 c0 -18 -5 -25 -20
-25 -15 0 -20 7 -20 25 0 18 5 25 20 25 15 0 20 -7 20 -25z m5090 -90 c0 -18
-5 -25 -20 -25 -15 0 -20 7 -20 25 0 18 5 25 20 25 15 0 20 -7 20 -25z m-2470
-50 c0 -23 -4 -25 -45 -25 -41 0 -45 2 -45 25 0 23 4 25 45 25 41 0 45 -2 45
-25z m7850 -140 c0 -20 -5 -25 -25 -25 -20 0 -25 5 -25 25 0 20 5 25 25 25 20
0 25 -5 25 -25z m-7040 -50 c0 -20 -5 -25 -25 -25 -20 0 -25 5 -25 25 0 20 5
25 25 25 20 0 25 -5 25 -25z m430 0 c0 -20 -5 -25 -25 -25 -20 0 -25 5 -25 25
0 20 5 25 25 25 20 0 25 -5 25 -25z m1140 0 c0 -20 -5 -25 -25 -25 -20 0 -25
5 -25 25 0 20 5 25 25 25 20 0 25 -5 25 -25z m-4040 -50 c0 -20 -5 -25 -25
-25 -20 0 -25 5 -25 25 0 20 5 25 25 25 20 0 25 -5 25 -25z m710 -380 c0 -20
-5 -25 -25 -25 -20 0 -25 5 -25 25 0 20 5 25 25 25 20 0 25 -5 25 -25z m4280
-140 c0 -20 -5 -25 -25 -25 -20 0 -25 5 -25 25 0 20 5 25 25 25 20 0 25 -5 25
-25z m5800 -50 c0 -18 -5 -25 -20 -25 -15 0 -20 7 -20 25 0 18 5 25 20 25 15
0 20 -7 20 -25z m1530 -50 c0 -23 -3 -25 -50 -25 -47 0 -50 2 -50 25 0 23 3
25 50 25 47 0 50 -2 50 -25z m-12800 -235 c0 -15 -7 -20 -25 -20 -18 0 -25 5
-25 20 0 15 7 20 25 20 18 0 25 -5 25 -20z m6370 -25 c0 -38 -3 -45 -20 -45
-17 0 -20 7 -20 45 0 38 3 45 20 45 17 0 20 -7 20 -45z m-1090 -20 c0 -20 -5
-25 -25 -25 -20 0 -25 5 -25 25 0 20 5 25 25 25 20 0 25 -5 25 -25z m8320 -50
c0 -18 -5 -25 -20 -25 -15 0 -20 7 -20 25 0 18 5 25 20 25 15 0 20 -7 20 -25z
m-12980 -95 c0 -15 -7 -20 -25 -20 -18 0 -25 5 -25 20 0 15 7 20 25 20 18 0
25 -5 25 -20z m620 -95 c0 -20 -5 -25 -25 -25 -20 0 -25 5 -25 25 0 20 5 25
25 25 20 0 25 -5 25 -25z m1800 -50 c0 -18 -5 -25 -20 -25 -15 0 -20 7 -20 25
0 18 5 25 20 25 15 0 20 -7 20 -25z m2100 -140 c0 -20 -5 -25 -25 -25 -20 0
-25 5 -25 25 0 20 5 25 25 25 20 0 25 -5 25 -25z m-5950 -260 c0 -41 -2 -45
-25 -45 -23 0 -25 4 -25 45 0 41 2 45 25 45 23 0 25 -4 25 -45z m50 -120 c0
-20 -5 -25 -25 -25 -20 0 -25 5 -25 25 0 20 5 25 25 25 20 0 25 -5 25 -25z
m4900 0 c0 -20 -5 -25 -25 -25 -20 0 -25 5 -25 25 0 20 5 25 25 25 20 0 25 -5
25 -25z m3950 -95 c0 -15 -7 -20 -25 -20 -18 0 -25 5 -25 20 0 15 7 20 25 20
18 0 25 -5 25 -20z m-7230 -45 c0 -20 -5 -25 -25 -25 -20 0 -25 5 -25 25 0 20
5 25 25 25 20 0 25 -5 25 -25z m140 0 c0 -20 -5 -25 -25 -25 -20 0 -25 5 -25
25 0 20 5 25 25 25 20 0 25 -5 25 -25z m480 0 c0 -20 -5 -25 -25 -25 -20 0
-25 5 -25 25 0 20 5 25 25 25 20 0 25 -5 25 -25z m7130 0 c0 -20 -5 -25 -25
-25 -20 0 -25 5 -25 25 0 20 5 25 25 25 20 0 25 -5 25 -25z m-6940 -145 c0
-15 -7 -20 -25 -20 -18 0 -25 5 -25 20 0 15 7 20 25 20 18 0 25 -5 25 -20z
m-2190 -95 c0 -20 -5 -25 -25 -25 -20 0 -25 5 -25 25 0 20 5 25 25 25 20 0 25
-5 25 -25z m1950 0 c0 -23 4 -25 45 -25 41 0 45 -2 45 -25 0 -20 5 -25 25 -25
24 0 25 -2 25 -70 0 -68 1 -70 25 -70 24 0 25 -2 25 -70 0 -68 -1 -70 -25 -70
-23 0 -25 -3 -25 -50 0 -47 -2 -50 -25 -50 -20 0 -25 5 -25 25 0 18 -5 25 -20
25 -15 0 -20 7 -20 25 0 23 4 25 45 25 l45 0 0 45 0 45 -45 0 -45 0 0 95 0 95
-50 0 -50 0 0 50 c0 47 2 50 25 50 20 0 25 -5 25 -25z m-100 -145 c0 -15 -7
-20 -25 -20 -18 0 -25 5 -25 20 0 15 7 20 25 20 18 0 25 -5 25 -20z m-1760
-45 c0 -20 -5 -25 -25 -25 -20 0 -25 5 -25 25 0 20 5 25 25 25 20 0 25 -5 25
-25z m3950 0 c0 -20 -5 -25 -25 -25 -20 0 -25 5 -25 25 0 20 5 25 25 25 20 0
25 -5 25 -25z m1670 -335 c0 -15 -7 -20 -25 -20 -18 0 -25 5 -25 20 0 15 7 20
25 20 18 0 25 -5 25 -20z m-3620 -45 c0 -20 5 -25 25 -25 25 0 25 0 25 -95 0
-95 0 -95 25 -95 20 0 25 -5 25 -25 0 -18 5 -25 20 -25 17 0 20 -7 20 -45 0
-38 -3 -45 -20 -45 -13 0 -20 7 -20 20 0 17 -7 20 -50 20 -47 0 -50 2 -50 25
0 20 -5 25 -25 25 -23 0 -25 3 -25 50 0 47 2 50 25 50 23 0 25 4 25 45 0 41
-2 45 -25 45 -23 0 -25 3 -25 50 0 47 2 50 25 50 20 0 25 -5 25 -25z m2850
-100 c0 -18 -5 -25 -20 -25 -15 0 -20 7 -20 25 0 18 5 25 20 25 15 0 20 -7 20
-25z m-3330 -330 c0 -18 -5 -25 -20 -25 -15 0 -20 7 -20 25 0 18 5 25 20 25
15 0 20 -7 20 -25z m6850 -95 c0 -13 -7 -20 -20 -20 -13 0 -20 7 -20 20 0 13
7 20 20 20 13 0 20 -7 20 -20z m-4280 -475 c0 -18 -5 -25 -20 -25 -15 0 -20 7
-20 25 0 18 5 25 20 25 15 0 20 -7 20 -25z m4140 -50 c0 -20 -5 -25 -25 -25
-20 0 -25 5 -25 25 0 20 5 25 25 25 20 0 25 -5 25 -25z"/>
<path d="M8010 9490 c0 -15 7 -20 25 -20 18 0 25 5 25 20 0 15 -7 20 -25 20
-18 0 -25 -5 -25 -20z"/>
<path d="M8250 9250 c0 -15 7 -20 25 -20 18 0 25 5 25 20 0 15 -7 20 -25 20
-18 0 -25 -5 -25 -20z"/>
<path d="M8730 9015 c0 -20 -5 -25 -25 -25 -20 0 -25 -5 -25 -25 0 -23 3 -25
50 -25 47 0 50 2 50 25 0 18 5 25 20 25 15 0 20 7 20 25 0 23 -4 25 -45 25
-41 0 -45 -2 -45 -25z"/>
<path d="M8630 8775 c0 -20 5 -25 25 -25 20 0 25 5 25 25 0 20 -5 25 -25 25
-20 0 -25 -5 -25 -25z"/>
<path d="M9250 8725 c0 -20 5 -25 25 -25 20 0 25 5 25 25 0 20 -5 25 -25 25
-20 0 -25 -5 -25 -25z"/>
<path d="M11110 7345 c0 -18 5 -25 20 -25 15 0 20 7 20 25 0 18 -5 25 -20 25
-15 0 -20 -7 -20 -25z"/>
<path d="M10630 7300 c0 -15 7 -20 25 -20 18 0 25 5 25 20 0 15 -7 20 -25 20
-18 0 -25 -5 -25 -20z"/>
<path d="M11390 6255 c0 -20 5 -25 25 -25 20 0 25 5 25 25 0 20 -5 25 -25 25
-20 0 -25 -5 -25 -25z"/>
</g>
</svg>
